<svg xmlns="http://www.w3.org/2000/svg" viewBox="0 0 900 380" width="900" height="380" role="img" aria-label="Agentic Flutter template: the app imports packages, modules implement contracts defined in packages, a showcase renders the design system, and one canonical AGENTS.md is the only place AI instructions live.">
  <defs><marker id="ma" viewBox="0 0 10 10" refX="9" refY="5" markerWidth="7" markerHeight="7" orient="auto-start-reverse"><path d="M0 0L10 5L0 10z" fill="#94a3b8"/></marker><marker id="mg" viewBox="0 0 10 10" refX="9" refY="5" markerWidth="7" markerHeight="7" orient="auto-start-reverse"><path d="M0 0L10 5L0 10z" fill="#34d399"/></marker><marker id="mo" viewBox="0 0 10 10" refX="9" refY="5" markerWidth="7" markerHeight="7" orient="auto-start-reverse"><path d="M0 0L10 5L0 10z" fill="#fbbf24"/></marker></defs>
  <rect width="900" height="380" rx="14" fill="#0f172a"/>
  <g font-family="-apple-system,Segoe UI,Helvetica,Arial,sans-serif">
  <rect x="30" y="56" width="160" height="80" rx="10" fill="#1e293b" stroke="#475569" stroke-width="1"/>
  <text x="110.0" y="84" font-size="13" font-weight="700" fill="#f1f5f9" text-anchor="middle">apps/app</text>
  <text x="110.0" y="102" font-size="11" fill="#94a3b8" text-anchor="middle">feature-first,</text>
  <text x="110.0" y="118" font-size="11" fill="#94a3b8" text-anchor="middle">fully layered</text>
  <rect x="250" y="56" width="190" height="80" rx="10" fill="#1e293b" stroke="#38bdf8" stroke-width="1.5"/>
  <text x="345.0" y="84" font-size="13" font-weight="700" fill="#f1f5f9" text-anchor="middle">packages/</text>
  <text x="345.0" y="102" font-size="11" fill="#94a3b8" text-anchor="middle">core, network,</text>
  <text x="345.0" y="118" font-size="11" fill="#94a3b8" text-anchor="middle">local_storage, design_system</text>
  <rect x="500" y="56" width="180" height="80" rx="10" fill="none" stroke="#475569" stroke-width="1" stroke-dasharray="5 4"/>
  <text x="590.0" y="92" font-size="13" font-weight="700" fill="#f1f5f9" text-anchor="middle">modules/</text>
  <text x="590.0" y="110" font-size="11" fill="#94a3b8" text-anchor="middle">auth, analytics, payments</text>
  <rect x="740" y="56" width="140" height="80" rx="10" fill="#1e293b" stroke="#475569" stroke-width="1"/>
  <text x="810.0" y="84" font-size="13" font-weight="700" fill="#f1f5f9" text-anchor="middle">showcase/</text>
  <text x="810.0" y="102" font-size="11" fill="#94a3b8" text-anchor="middle">design-system</text>
  <text x="810.0" y="118" font-size="11" fill="#94a3b8" text-anchor="middle">gallery</text>
  <polyline points="190,96 248,96" fill="none" stroke="#94a3b8" stroke-width="1.6" marker-end="url(#ma)"/>
  <text x="219" y="88" font-size="11" fill="#cbd5e1" text-anchor="middle">imports</text>
  <polyline points="498,96 442,96" fill="none" stroke="#94a3b8" stroke-width="1.6" marker-end="url(#ma)"/>
  <text x="470" y="88" font-size="11" fill="#cbd5e1" text-anchor="middle">contracts</text>
  <polyline points="810,56 810,30 345,30 345,54" fill="none" stroke="#94a3b8" stroke-width="1.6" marker-end="url(#ma)"/>
  <text x="580" y="24" font-size="11" fill="#cbd5e1" text-anchor="middle">renders design_system</text>
  <text x="30" y="190" font-size="12" font-style="italic" fill="#64748b" text-anchor="start">AI instructions: one source of truth (ADR-0005)</text>
  <rect x="30" y="214" width="260" height="90" rx="10" fill="#1e293b" stroke="#34d399" stroke-width="1.5"/>
  <text x="160.0" y="255" font-size="13" font-weight="700" fill="#f1f5f9" text-anchor="middle">.ai/AGENTS.md</text>
  <text x="160.0" y="273" font-size="11" fill="#94a3b8" text-anchor="middle">the only canonical file</text>
  <rect x="420" y="206" width="260" height="40" rx="10" fill="#1e293b" stroke="#475569" stroke-width="1"/>
  <text x="550.0" y="230" font-size="13" font-weight="700" fill="#f1f5f9" text-anchor="middle">CLAUDE.md</text>
  <polyline points="290,259 418,226" fill="none" stroke="#94a3b8" stroke-width="1.6" marker-end="url(#ma)"/>
  <rect x="420" y="258" width="260" height="40" rx="10" fill="#1e293b" stroke="#475569" stroke-width="1"/>
  <text x="550.0" y="282" font-size="13" font-weight="700" fill="#f1f5f9" text-anchor="middle">.cursor/rules/</text>
  <polyline points="290,259 418,278" fill="none" stroke="#94a3b8" stroke-width="1.6" marker-end="url(#ma)"/>
  <rect x="420" y="310" width="260" height="40" rx="10" fill="#1e293b" stroke="#475569" stroke-width="1"/>
  <text x="550.0" y="334" font-size="13" font-weight="700" fill="#f1f5f9" text-anchor="middle">.github/copilot-instructions.md</text>
  <polyline points="290,259 418,330" fill="none" stroke="#94a3b8" stroke-width="1.6" marker-end="url(#ma)"/>
  <text x="700" y="262" font-size="12" fill="#94a3b8" text-anchor="start">thin pointers back</text>
  </g>
</svg>
